<svg width="111" height="31" viewBox="0 0 111 31" fill="none" xmlns="http://www.w3.org/2000/svg">
<path d="M101.146 0H102.553C103.29 0.388752 103.867 0.904316 103.949 1.82734C104.151 4.12451 104.665 6.35724 105.249 8.57749C105.781 10.5982 105.094 11.8829 103.161 12.5981C101.69 13.1427 100.163 13.2446 98.6155 13.2404C97.8417 13.2384 97.0337 13.23 96.3626 14.0055C96.7878 14.0949 97.1102 14.1739 97.4347 14.23C100.161 14.7019 102.906 14.44 105.644 14.4379C107.921 14.4379 108.463 14.9056 108.806 17.2111C109.205 19.8929 109.948 22.4686 111 24.9529V26.1898C110.174 27.354 108.955 27.7719 107.655 28.0255C106.168 28.3165 104.669 28.3706 103.155 28.2916C99.6673 28.1086 96.1934 28.3581 92.7255 28.7136C88.7881 29.119 84.8587 29.2853 80.8971 28.9277C76.1899 28.5036 71.4626 28.6845 66.7393 28.7427C60.41 28.8238 54.0787 28.7365 47.7474 28.8092C40.2796 28.8945 32.8199 29.1315 25.3581 29.4454C20.0062 29.6699 14.6562 29.9277 9.32233 30.4703C7.36168 30.6698 5.41715 31.1376 3.42628 30.9609C1.94521 30.8299 1.17143 30.1647 0.814768 28.6949C0.528631 27.5182 0.464149 26.3208 0.572962 25.115C0.619308 24.5932 0.595127 24.0985 0.387577 23.6058C-0.40031 21.7244 0.036957 20.132 1.48175 18.7703C2.02783 18.2547 2.63235 17.8285 3.25299 17.4211C5.66098 15.8432 6.05794 14.7372 5.21766 11.9848C4.59904 9.9558 4.93757 9.2656 6.91434 8.77083C10.8175 7.79167 14.7569 7.00585 18.7306 6.3905C23.2061 5.69615 27.7278 5.57558 32.2275 5.1889C40.2696 4.49664 48.3318 4.2347 56.3819 3.72953C59.5556 3.52995 62.7455 3.59232 65.9131 3.3574C70.7533 2.99776 75.5773 2.40735 80.4175 2.0581C86.1282 1.64648 91.8409 1.26396 97.5253 0.567537C98.7303 0.419935 99.9857 0.528038 101.138 0.00415778L101.146 0Z" fill="#EBCDB5"/>
</svg>
