<svg width="111" height="31" fill="none" xmlns="http://www.w3.org/2000/svg"><path d="M101.146 0h1.407c.737.389 1.314.904 1.396 1.827.202 2.298.716 4.53 1.3 6.75.532 2.021-.155 3.306-2.088 4.021-1.471.545-2.998.647-4.546.642-.773-.002-1.581-.01-2.252.765.425.09.747.169 1.072.225 2.726.472 5.471.21 8.209.208 2.277 0 2.819.468 3.162 2.773A31.77 31.77 0 0 0 111 24.953v1.237c-.826 1.164-2.045 1.582-3.345 1.835-1.487.292-2.986.346-4.5.267-3.488-.183-6.962.066-10.43.422-3.937.405-7.866.571-11.828.214-4.707-.424-9.434-.244-14.158-.185-6.329.08-12.66-.006-18.992.066-7.467.085-14.927.322-22.389.636-5.352.225-10.702.483-16.036 1.025-1.96.2-3.905.668-5.896.49-1.48-.13-2.255-.795-2.611-2.265-.286-1.177-.35-2.374-.242-3.58.046-.522.022-1.016-.185-1.51-.788-1.88-.351-3.473 1.094-4.835.546-.515 1.15-.942 1.771-1.349 2.408-1.578 2.805-2.684 1.965-5.436-.619-2.03-.28-2.72 1.696-3.214 3.904-.98 7.843-1.765 11.817-2.38 4.475-.695 8.997-.815 13.496-1.202 8.043-.692 16.105-.954 24.155-1.46 3.174-.2 6.364-.137 9.531-.372 4.84-.36 9.664-.95 14.505-1.299 5.71-.412 11.423-.794 17.107-1.49 1.205-.148 2.46-.04 3.613-.564l.008-.004Z" fill="#D7884C"/></svg>